<?xml version="1.0" standalone="no"?>
<!DOCTYPE svg PUBLIC "-//W3C//DTD SVG 20010904//EN"
 "http://www.w3.org/TR/2001/REC-SVG-20010904/DTD/svg10.dtd">
<svg version="1.0" xmlns="http://www.w3.org/2000/svg"
 width="444.000000pt" height="802.000000pt" viewBox="0 0 444.000000 802.000000"
 preserveAspectRatio="xMidYMid meet">

<g transform="translate(0.000000,802.000000) scale(0.100000,-0.100000)"
fill="#000000" stroke="none">
<path d="M1920 7974 c-134 -15 -302 -48 -325 -65 -5 -4 -30 -10 -55 -14 -25
-4 -72 -20 -105 -35 -33 -15 -73 -30 -90 -34 -61 -15 -185 -82 -185 -101 0 -4
-9 -16 -20 -25 -22 -19 -50 -110 -70 -225 -6 -38 -18 -98 -26 -132 -8 -35 -19
-100 -24 -145 -18 -161 -35 -251 -48 -256 -18 -6 -44 20 -103 99 -64 87 -78
85 -147 -19 -23 -35 -42 -66 -42 -68 0 -3 -7 -12 -15 -21 -8 -8 -12 -20 -8
-26 3 -7 3 -9 -2 -5 -7 7 -91 -119 -150 -227 -42 -76 -64 -168 -76 -316 -12
-152 -7 -402 12 -549 6 -47 12 -98 14 -115 11 -100 28 -201 34 -210 5 -5 11
-43 15 -83 3 -40 13 -91 21 -115 8 -23 15 -58 15 -77 0 -19 7 -64 15 -100 8
-36 22 -99 30 -140 9 -41 20 -83 25 -92 6 -10 10 -30 10 -45 0 -16 7 -57 16
-93 8 -36 19 -96 25 -134 21 -150 126 -377 245 -534 43 -56 223 -191 359 -267
137 -77 136 -77 126 -94 -11 -18 -124 41 -306 161 -153 100 -159 103 -207 112
-33 6 -41 3 -78 -30 -27 -25 -44 -52 -54 -85 -21 -68 -8 -107 45 -137 l40 -23
-45 -35 c-69 -52 -74 -105 -15 -163 57 -57 102 -58 292 -5 49 13 72 16 84 8
40 -25 37 -36 -52 -184 -95 -157 -181 -324 -211 -408 -22 -63 -18 -62 -156
-12 -48 18 -94 30 -103 26 -12 -4 -15 -24 -15 -94 0 -108 19 -171 71 -234 22
-26 39 -57 39 -70 0 -13 -14 -86 -31 -163 -50 -228 -36 -318 68 -416 155 -146
419 -171 608 -58 37 23 68 39 70 37 2 -2 -3 -98 -10 -215 -15 -266 -10 -308
47 -359 69 -64 314 -91 545 -60 114 15 159 36 193 92 12 18 26 34 30 34 5 0
17 -14 27 -30 24 -41 84 -81 135 -91 80 -15 311 -21 396 -10 114 15 156 29
201 67 58 50 63 81 53 344 -4 124 -5 236 -1 250 4 14 8 19 8 12 2 -24 84 -102
130 -124 39 -18 64 -22 156 -22 128 0 191 15 308 76 116 61 177 154 177 273 0
122 -51 318 -147 561 l-57 147 33 26 c103 78 191 182 191 225 0 45 -186 81
-288 56 -28 -6 -59 -9 -69 -6 -26 8 -153 236 -153 274 0 20 23 62 75 136 94
134 95 136 95 185 0 51 -30 75 -81 66 -39 -7 -231 -90 -271 -117 -16 -11 -29
-14 -33 -9 -7 12 48 48 142 94 121 58 166 89 273 188 98 90 133 134 232 290
54 84 110 283 147 519 12 74 26 164 32 200 20 123 91 431 120 523 17 50 39
128 49 172 11 44 28 106 39 138 42 119 49 289 19 417 -23 97 -106 275 -159
342 -16 20 -29 40 -29 43 0 4 -9 18 -20 32 -11 14 -20 36 -20 49 0 29 29 59
140 143 25 19 53 42 62 50 10 9 46 39 82 66 74 58 106 112 106 182 0 67 -38
129 -90 144 -47 14 -90 1 -190 -61 -36 -22 -69 -40 -73 -40 -5 0 -23 16 -41
35 -38 40 -62 43 -121 16 -54 -24 -103 -67 -135 -118 l-27 -42 -18 87 c-23
114 -45 163 -86 195 -61 46 -226 115 -429 178 -84 27 -202 30 -255 8 -16 -7
-81 -20 -143 -29 -169 -26 -278 -89 -381 -220 -24 -31 -21 -39 -56 160 -15 85
-31 171 -36 190 -6 19 -16 86 -23 149 -19 154 -21 156 -169 157 -61 1 -128 0
-147 -2z m149 -152 c30 -30 36 -52 72 -252 19 -107 111 -580 126 -647 3 -13 9
-23 13 -23 4 0 37 44 73 98 63 94 107 179 107 208 0 8 5 14 10 14 6 0 10 6 10
14 0 25 83 100 140 128 85 41 307 92 332 77 16 -10 13 -52 -17 -222 -13 -75
-36 -240 -50 -365 -14 -125 -31 -242 -37 -261 -5 -18 -8 -52 -5 -76 4 -23 2
-55 -3 -71 -5 -19 -9 -22 -9 -10 -1 11 -4 16 -7 13 -4 -4 -2 -19 4 -34 12 -32
21 -198 10 -180 -4 7 -8 26 -9 42 -1 28 -2 27 -10 -10 -8 -32 -7 -42 6 -51 8
-6 15 -17 15 -24 0 -10 -3 -10 -14 -1 -10 8 -16 9 -21 1 -3 -5 -1 -10 4 -10
14 0 14 -37 1 -45 -15 -10 -12 -35 5 -35 8 0 15 -4 15 -10 0 -5 5 -10 12 -10
6 0 8 3 5 7 -4 3 4 20 17 37 12 17 28 47 34 66 14 44 32 197 32 276 0 42 3 55
10 44 5 -8 10 -10 10 -5 0 6 3 21 5 35 5 22 4 22 -4 5 -9 -19 -10 -19 -10 4
-1 13 7 30 17 38 9 8 11 12 5 8 -8 -4 -13 0 -13 10 0 9 4 14 8 11 4 -2 6 12 4
32 -3 29 -1 34 8 22 9 -12 10 -5 5 30 -5 35 -4 42 5 30 9 -12 10 -11 5 6 -3
12 1 37 9 55 29 68 62 287 51 332 -4 13 3 63 14 111 12 48 21 112 21 142 0 38
4 54 13 54 45 0 347 -131 347 -151 0 -6 -19 -33 -42 -58 -81 -89 -105 -118
-162 -194 -31 -42 -60 -77 -64 -77 -4 0 -20 -20 -36 -45 -15 -25 -31 -43 -34
-40 -3 3 0 11 6 17 17 17 15 33 -3 18 -19 -16 -20 -59 -1 -66 20 -8 87 37 152
102 30 30 60 51 66 48 6 -4 8 -2 4 4 -6 10 104 137 151 175 25 20 33 7 8 -13
-8 -7 -15 -18 -15 -24 0 -6 5 -3 11 7 17 29 27 19 43 -45 100 -402 153 -596
169 -615 17 -23 49 -14 104 28 84 63 121 42 104 -61 -9 -53 -24 -83 -62 -125
-29 -30 -79 -125 -79 -148 0 -7 -4 -17 -9 -23 -12 -13 -23 -124 -12 -124 5 0
21 4 34 9 23 9 35 30 55 101 9 31 9 28 4 -20 -2 -30 -2 -52 2 -49 3 3 7 19 8
35 1 16 5 34 10 40 4 6 6 20 3 32 -2 13 9 37 29 64 50 65 68 106 69 154 0 24
1 44 2 44 1 0 14 -17 29 -38 37 -55 36 -125 -3 -179 -16 -22 -32 -50 -35 -64
-4 -13 -11 -33 -16 -44 -17 -39 -100 -304 -100 -320 0 -8 -6 -18 -14 -21 -8
-3 -15 -19 -15 -37 0 -18 -3 -65 -7 -104 -4 -48 -3 -73 4 -73 11 0 55 108 77
188 47 174 164 406 186 371 16 -26 9 -73 -25 -179 -84 -258 -128 -419 -159
-585 -9 -44 -25 -132 -37 -195 -18 -95 -65 -332 -111 -558 -17 -85 -84 -251
-96 -238 -7 6 -32 -23 -33 -38 0 -6 7 -1 15 10 8 10 15 14 15 7 0 -6 -11 -25
-25 -41 -14 -17 -25 -37 -25 -47 0 -15 -1 -15 -16 -1 -21 22 -27 20 -14 -3 14
-27 13 -36 -4 -22 -12 10 -14 8 -9 -11 4 -19 3 -20 -7 -8 -9 13 -11 12 -9 -5
3 -39 0 -51 -10 -37 -7 12 -12 12 -30 0 -12 -7 -24 -21 -27 -31 -3 -10 -24
-30 -47 -44 -23 -15 -44 -28 -46 -30 -2 -1 1 -9 8 -17 9 -11 8 -15 -3 -19 -10
-4 -13 -1 -9 9 3 7 0 14 -6 14 -6 0 -11 -4 -11 -10 0 -5 -5 -10 -10 -10 -6 0
-26 -14 -44 -31 -19 -16 -42 -37 -52 -45 -11 -9 -13 -12 -5 -8 9 5 12 3 7 -4
-4 -7 -28 -12 -54 -13 -36 -1 -41 -3 -22 -8 17 -5 21 -9 12 -15 -7 -4 -22 -4
-35 -1 -17 5 -18 4 -7 -4 19 -13 16 -15 -48 -39 -49 -19 -56 -19 -89 -6 -19 8
-38 12 -41 9 -3 -3 4 -8 17 -12 16 -4 19 -8 10 -14 -7 -4 -21 -3 -32 2 -10 6
-23 8 -30 5 -7 -2 -4 -5 6 -5 10 -1 15 -6 12 -11 -4 -6 -16 -9 -28 -8 -33 4
-187 -13 -187 -21 0 -3 -18 -7 -40 -9 -24 -1 -40 2 -40 8 0 6 -5 8 -11 4 -6
-3 -83 -7 -172 -9 -89 -1 -210 -6 -269 -10 -87 -6 -108 -5 -108 6 0 10 -3 10
-12 1 -14 -14 -32 -16 -23 -3 3 5 -38 12 -95 16 -55 4 -103 12 -106 16 -3 5
-22 9 -42 9 -20 0 -52 9 -70 20 -18 11 -45 20 -61 20 -16 0 -31 4 -33 10 -1 5
-16 11 -33 13 -48 6 -128 37 -140 54 -11 14 -14 14 -33 -5 -25 -25 -31 -26
-52 -11 -13 9 -12 10 3 5 19 -6 47 2 47 14 0 11 -79 42 -91 35 -5 -3 -6 1 -3
9 7 19 -12 22 -20 4 -3 -10 -8 -9 -18 2 -7 8 -20 16 -28 18 -8 2 -19 10 -23
18 -4 8 -17 14 -27 14 -11 0 -20 6 -20 13 0 16 -88 48 -93 34 -3 -11 -55 38
-97 93 -14 18 -30 37 -35 44 -65 72 -136 203 -159 291 -14 56 -147 723 -196
985 -12 63 -27 147 -35 185 -47 237 -45 760 3 868 24 54 102 176 102 159 0
-19 0 -20 15 -63 16 -46 20 -90 5 -51 -5 12 -11 22 -13 22 -10 0 3 -140 17
-170 l15 -35 2 35 c1 21 7 1 15 -51 7 -47 18 -98 24 -115 10 -26 13 -27 21
-11 7 11 7 114 -1 304 -13 353 -9 365 86 250 102 -124 152 -246 161 -392 3
-49 9 -97 14 -105 6 -9 7 5 4 40 -4 53 -4 54 6 15 5 -22 8 -60 5 -85 -4 -28
-2 -37 3 -25 5 14 10 0 16 -50 4 -39 8 -82 9 -98 1 -17 6 -25 14 -22 6 2 12
-1 12 -7 0 -6 8 -20 17 -31 17 -19 17 -19 -4 -13 -16 5 -23 3 -23 -7 0 -16 32
-19 42 -3 4 6 4 22 1 35 -5 19 -3 22 8 16 12 -7 12 -6 1 8 -16 19 -16 23 -34
222 -16 183 -16 549 1 705 21 207 80 510 109 570 18 36 73 72 182 118 75 32
190 65 198 57 4 -4 10 -154 13 -333 4 -238 9 -335 19 -357 l13 -30 8 35 c9 42
39 514 39 616 0 41 5 77 13 86 17 22 45 29 54 15 4 -7 8 -160 8 -340 0 -181
-3 -318 -6 -305 -5 21 -6 21 -11 -7 -4 -16 -2 -34 3 -39 5 -6 10 -33 10 -60 1
-44 2 -47 9 -21 6 24 8 15 10 -40 4 -98 2 -225 -4 -255 -3 -14 -3 -19 0 -12
14 32 22 2 28 -118 7 -131 34 -310 61 -407 11 -39 19 -51 33 -49 14 3 17 14
17 77 0 41 -3 82 -7 91 -7 14 -5 16 8 11 13 -5 15 -3 9 7 -5 8 -4 11 3 6 6 -4
9 -13 5 -21 -3 -8 0 -15 5 -15 6 0 12 7 14 17 6 30 49 -74 57 -139 5 -35 9
-54 10 -43 2 11 15 -23 31 -75 38 -128 41 -135 51 -118 14 21 10 210 -5 259
-17 57 -50 126 -100 214 -59 101 -88 165 -105 230 -6 22 -20 245 -31 495 -10
250 -22 498 -25 550 -8 113 0 130 66 140 91 15 119 12 148 -18z m2141 -662
c11 -21 -1 -36 -70 -89 -112 -85 -197 -158 -295 -253 -60 -60 -112 -108 -116
-108 -8 0 -24 20 -32 41 -3 9 7 36 24 60 36 54 66 144 75 224 7 66 17 85 44
85 13 0 20 -11 25 -40 6 -38 34 -70 61 -70 6 0 52 29 103 66 50 36 96 62 101
59 6 -4 9 -2 8 4 -3 11 31 40 49 41 7 0 17 -9 23 -20z m-1183 -162 c-2 -13 -4
-3 -4 22 0 25 2 35 4 23 2 -13 2 -33 0 -45z m-170 -455 c-3 -10 -5 -4 -5 12 0
17 2 24 5 18 2 -7 2 -21 0 -30z m-2130 -35 c-3 -8 -6 -5 -6 6 -1 11 2 17 5 13
3 -3 4 -12 1 -19z m2183 -133 c-16 -47 -23 -40 -8 8 6 20 13 35 16 33 2 -3 -1
-21 -8 -41z m-973 -7 c-3 -8 -6 -5 -6 6 -1 11 2 17 5 13 3 -3 4 -12 1 -19z
m940 -140 c-3 -8 -6 -5 -6 6 -1 11 2 17 5 13 3 -3 4 -12 1 -19z m590 -2122
c-21 -19 -37 -31 -37 -27 0 11 62 72 68 66 3 -2 -11 -20 -31 -39z m-2337 -36
c0 -5 -4 -10 -10 -10 -5 0 -10 5 -10 10 0 6 5 10 10 10 6 0 10 -4 10 -10z m40
-9 c0 -5 -7 -11 -15 -15 -15 -5 -20 5 -8 17 9 10 23 9 23 -2z m2250 5 c0 -2
-7 -9 -15 -16 -13 -11 -14 -10 -9 4 5 14 24 23 24 12z m-2241 -33 c-12 -15
-12 -16 4 -10 10 4 16 3 13 -2 -4 -5 11 -23 32 -41 39 -33 0 -9 -48 30 -21 17
-23 21 -10 30 22 14 24 12 9 -7z m2151 -43 c-35 -24 -54 -31 -30 -11 14 11 30
21 35 21 6 0 3 -5 -5 -10z m-1950 -96 c0 -8 -19 -13 -24 -6 -3 5 1 9 9 9 8 0
15 -2 15 -3z m-484 -33 c-3 -5 0 -9 7 -8 33 1 47 -4 47 -17 0 -8 -8 -16 -17
-18 -15 -3 -14 -5 5 -10 12 -3 20 -2 16 3 -3 5 0 9 6 9 6 0 8 4 5 10 -13 22
169 -64 288 -136 112 -67 85 -80 -32 -15 -50 28 -96 51 -101 51 -21 0 -9 -20
28 -46 20 -15 57 -42 80 -60 24 -18 49 -35 55 -37 8 -3 9 -8 2 -15 -7 -8 -23
-2 -54 18 -54 37 -121 40 -229 10 -39 -11 -86 -20 -104 -20 l-33 0 25 20 c14
10 55 36 92 57 37 21 68 41 68 44 0 3 -25 22 -55 41 -30 19 -52 38 -47 43 4 5
2 5 -5 1 -10 -5 -93 39 -93 50 0 1 7 10 16 18 16 17 39 22 30 7z m698 -61 c7
-7 1 -7 -19 -1 -54 17 -61 21 -25 16 19 -3 39 -10 44 -15z m1386 10 c-8 -5
-19 -10 -25 -10 -5 0 -3 5 5 10 8 5 20 10 25 10 6 0 3 -5 -5 -10z m-1003 -46
c-3 -3 -12 -4 -19 -1 -8 3 -5 6 6 6 11 1 17 -2 13 -5z m311 -1 c-10 -2 -26 -2
-35 0 -10 3 -2 5 17 5 19 0 27 -2 18 -5z m525 0 c-7 -2 -19 -2 -25 0 -7 3 -2
5 12 5 14 0 19 -2 13 -5z m-150 -10 c-7 -2 -21 -2 -30 0 -10 3 -4 5 12 5 17 0
24 -2 18 -5z m727 -2 c0 -12 -149 -221 -157 -221 -4 0 -17 10 -30 22 -36 34
-29 60 30 110 94 80 157 116 157 89z m-1573 -7 c-3 -3 -12 -4 -19 -1 -8 3 -5
6 6 6 11 1 17 -2 13 -5z m156 -1 c-7 -2 -19 -2 -25 0 -7 3 -2 5 12 5 14 0 19
-2 13 -5z m-50 -20 c-7 -2 -19 -2 -25 0 -7 3 -2 5 12 5 14 0 19 -2 13 -5z
m730 0 c-7 -2 -21 -2 -30 0 -10 3 -4 5 12 5 17 0 24 -2 18 -5z m-660 -10 c-7
-2 -21 -2 -30 0 -10 3 -4 5 12 5 17 0 24 -2 18 -5z m-479 -18 c-4 -8 -10 -12
-15 -9 -5 3 -8 0 -7 -8 2 -7 -3 -12 -10 -10 -8 1 -11 -2 -7 -8 5 -8 12 -7 23
3 11 10 24 12 37 7 11 -5 31 -9 45 -9 20 -1 22 1 10 10 -13 9 -13 10 0 6 8 -2
15 -10 15 -18 0 -7 9 -15 20 -17 15 -2 17 -1 6 6 -10 7 -5 9 17 8 17 -1 34 -5
39 -10 4 -5 3 -6 -4 -2 -6 3 -23 1 -38 -6 -19 -9 -28 -9 -37 0 -7 7 -21 12
-32 12 -21 -1 -21 -1 -1 -13 19 -11 25 -13 44 -16 5 0 13 -11 16 -22 6 -17 9
-18 16 -8 18 29 17 -1 -2 -76 -11 -44 -27 -85 -36 -92 -11 -8 -13 -20 -9 -40
4 -17 3 -23 -2 -15 -6 9 -12 1 -20 -25 -13 -42 -13 -43 -202 -108 -89 -31
-220 -55 -220 -41 0 7 60 114 127 226 68 116 140 215 182 253 45 41 53 45 45
22z m799 -2 c-24 -2 -62 -2 -85 0 -24 2 -5 4 42 4 47 0 66 -2 43 -4z m-760
-10 c-7 -2 -19 -2 -25 0 -7 3 -2 5 12 5 14 0 19 -2 13 -5z m1409 -9 c15 -14
20 -15 34 -3 14 12 19 10 35 -11 10 -14 24 -32 31 -40 51 -58 70 -92 60 -102
-22 -22 -217 32 -264 73 -13 11 -17 17 -10 14 13 -7 44 24 36 36 -6 11 53 32
68 24 7 -3 4 1 -6 9 -11 9 -16 16 -11 16 5 0 17 -7 27 -16z m-129 -31 c-7 -2
-19 -2 -25 0 -7 3 -2 5 12 5 14 0 19 -2 13 -5z m-894 -14 c32 -2 30 -3 -14 -9
-27 -4 -58 -10 -67 -14 -11 -5 -18 -4 -18 3 0 6 10 11 23 12 21 1 21 1 -3 10
-21 7 -20 8 9 4 18 -3 50 -6 70 -6z m719 -6 c-10 -2 -26 -2 -35 0 -10 3 -2 5
17 5 19 0 27 -2 18 -5z m-855 -23 c3 -11 1 -18 -4 -14 -5 3 -9 12 -9 20 0 20
7 17 13 -6z m24 -22 c-4 -31 -3 -38 4 -25 8 13 23 17 72 17 34 0 69 -4 77 -10
9 -5 19 -5 27 1 8 7 18 7 30 -1 15 -9 14 -10 -7 -4 -20 5 -23 4 -13 -7 18 -18
67 5 59 28 -6 13 -4 14 9 3 15 -12 15 -14 0 -23 -13 -7 -14 -12 -4 -23 6 -8
18 -14 25 -14 9 0 11 -6 7 -17 -6 -16 -5 -17 12 -3 17 14 18 13 13 -13 -4 -22
-3 -25 8 -16 8 6 14 10 14 8 0 -2 9 -47 20 -99 20 -98 26 -254 11 -279 -5 -8
-20 -16 -32 -18 -13 -2 -26 -7 -29 -12 -3 -5 -16 -11 -30 -14 -16 -3 -10 -5
18 -6 24 0 42 4 42 10 0 5 5 7 11 3 18 -10 -11 -23 -64 -28 -45 -4 -47 -3 -41
20 8 32 -5 30 -62 -8 -81 -55 -177 -50 -263 13 -45 32 -52 59 -25 97 19 27 11
42 -17 35 -25 -7 -26 -17 15 182 15 71 36 147 46 170 18 38 19 39 27 17 8 -21
11 -22 22 -8 8 9 11 26 7 41 -4 16 -2 25 5 25 8 0 10 -14 6 -42z m213 27 c0
-2 -10 -9 -22 -15 -22 -11 -22 -10 -4 4 21 17 26 19 26 11z m640 -9 c0 -3 -4
-8 -10 -11 -5 -3 -10 -1 -10 4 0 6 5 11 10 11 6 0 10 -2 10 -4z m-220 -10 c0
-2 -7 -7 -16 -10 -8 -3 -12 -2 -9 4 6 10 25 14 25 6z m197 -22 c7 -7 22 -15
32 -19 11 -3 22 -11 24 -18 2 -7 3 -4 2 5 -5 30 12 30 18 0 2 -15 12 -61 21
-102 9 -41 18 -86 21 -100 4 -19 3 -21 -4 -10 -8 11 -9 -1 -5 -40 10 -100 12
-115 20 -134 6 -16 4 -18 -10 -13 -10 4 -15 3 -11 -3 8 -13 -1 -13 -28 1 -21
10 -21 10 -3 -5 11 -9 28 -13 39 -10 14 4 18 2 15 -7 -3 -8 -18 -14 -36 -14
-19 0 -39 -8 -52 -22 -26 -28 -34 -30 -18 -3 7 10 9 22 5 27 -9 8 -60 -20 -88
-48 -11 -11 -25 -19 -31 -19 -7 1 -3 6 8 13 19 10 20 14 8 25 -12 11 -14 10
-14 -3 0 -8 -5 -15 -11 -15 -5 0 -7 5 -3 12 5 8 -9 9 -57 3 -35 -4 -79 -8 -98
-7 -41 1 -33 -8 16 -19 30 -7 25 -8 -26 -5 -35 3 -68 9 -74 15 -7 7 -12 50
-13 99 0 48 -6 100 -12 115 -15 36 -15 40 2 34 7 -3 13 0 13 6 -1 35 4 57 16
69 22 23 49 100 37 108 -7 4 -3 15 10 30 11 13 20 19 20 14 0 -6 -5 -15 -12
-22 -9 -9 -9 -12 0 -12 6 0 19 8 29 19 16 16 96 58 143 73 23 8 93 -4 107 -18z
m-395 -26 c-7 -7 -12 -8 -12 -2 0 14 12 26 19 19 2 -3 -1 -11 -7 -17z m193 12
c-27 -12 -43 -12 -25 0 8 5 22 9 30 9 10 0 8 -3 -5 -9z m542 -75 c54 -14 114
-25 133 -25 50 0 70 -17 127 -112 95 -157 156 -279 144 -291 -16 -16 -317 86
-384 130 -46 30 -99 93 -78 93 4 0 36 -11 71 -25 35 -14 68 -25 74 -25 25 0
-56 65 -119 95 -99 47 -118 70 -123 151 l-4 66 30 -16 c17 -9 75 -27 129 -41z
m-819 0 c-3 -3 -9 2 -12 12 -6 14 -5 15 5 6 7 -7 10 -15 7 -18z m29 -87 c-12
-38 -17 -35 -11 10 3 28 2 32 -5 17 -8 -16 -10 -17 -10 -3 -1 9 2 24 5 33 12
30 32 -25 21 -57z m104 5 c-12 -20 -14 -14 -5 12 4 9 9 14 11 11 3 -2 0 -13
-6 -23z m-25 -80 c-10 -10 -19 5 -10 18 6 11 8 11 12 0 2 -7 1 -15 -2 -18z
m-716 -88 c-10 -12 -10 -15 4 -15 9 0 16 -4 16 -10 0 -5 -5 -10 -11 -10 -5 0
-7 -5 -3 -11 3 -6 0 -15 -7 -20 -10 -7 -11 -11 -2 -17 11 -7 10 -14 -22 -162
-9 -44 -28 -106 -34 -115 -4 -5 -13 -36 -20 -68 -7 -31 -16 -55 -19 -53 -4 2
-8 -6 -8 -17 -1 -12 -9 -47 -17 -77 -9 -30 -24 -85 -33 -122 -10 -38 -20 -68
-24 -68 -9 0 -27 91 -35 175 -4 33 -16 103 -27 155 -42 194 -17 362 59 391 30
11 48 4 61 -26 15 -32 31 -24 60 26 13 22 33 44 45 49 30 12 31 12 17 -5z
m1240 -20 c0 -5 -5 -3 -10 5 -5 8 -10 20 -10 25 0 6 5 3 10 -5 5 -8 10 -19 10
-25z m115 -25 c4 -6 -1 -7 -12 -3 -16 6 -16 4 2 -17 l20 -23 -22 12 c-23 12
-28 22 -16 34 9 10 21 9 28 -3z m-113 -52 c-8 -8 -9 -4 -5 13 4 13 8 18 11 10
2 -7 -1 -18 -6 -23z m242 -43 c56 -11 81 -25 104 -59 22 -32 43 -136 27 -136
-7 0 -174 87 -185 97 -2 2 2 8 10 14 11 7 7 8 -12 3 -36 -8 -36 2 2 21 35 18
44 19 34 3 -5 -8 -2 -9 10 -5 10 4 22 7 28 7 6 0 5 6 -2 15 -7 9 -21 13 -31
10 -14 -5 -19 -1 -19 14 0 12 -7 21 -15 21 -8 0 -15 5 -15 11 0 6 -7 8 -16 5
-9 -3 -12 -2 -9 5 4 6 -1 20 -12 32 -10 12 2 5 26 -15 24 -20 57 -40 75 -43z
m-1889 -67 c-12 -57 -30 -145 -39 -195 -22 -123 -56 -231 -66 -212 -4 7 -17
54 -30 103 -30 121 -26 210 14 288 40 79 105 137 137 122 3 -2 -4 -50 -16
-106z m115 98 c0 -2 -7 -33 -16 -68 -19 -75 -15 -161 16 -289 22 -93 67 -479
61 -519 l-4 -25 -8 25 c-7 24 -7 24 -8 -6 -1 -17 -8 -37 -16 -44 -8 -7 -15
-21 -15 -31 0 -11 -4 -19 -10 -19 -5 0 -10 5 -10 10 0 6 -4 10 -9 10 -10 0
-37 -116 -34 -150 2 -21 1 -22 -5 -6 -8 18 -9 18 -30 -4 -12 -13 -19 -27 -16
-32 3 -4 -1 -8 -8 -8 -7 0 -23 -3 -35 -6 -13 -4 -23 -2 -23 4 0 6 8 13 18 15
9 2 4 3 -12 1 l-28 -4 6 48 c3 26 11 82 18 124 10 69 9 88 -10 180 -25 118
-22 153 26 315 38 123 60 225 72 331 10 86 38 152 66 152 8 0 14 -2 14 -4z
m2408 -12 c40 -11 21 -41 -65 -102 -62 -44 -119 -20 -111 46 2 21 12 30 48 44
47 18 90 22 128 12z m-928 -24 c0 -11 -100 -64 -107 -56 -3 3 13 13 35 22 23
9 41 19 40 22 -2 16 3 22 17 22 8 0 15 -4 15 -10z m-227 -57 c-7 -2 -19 -2
-25 0 -7 3 -2 5 12 5 14 0 19 -2 13 -5z m765 -26 c20 -22 29 -51 120 -395 14
-56 31 -101 37 -99 30 10 3 190 -56 369 -34 104 -34 104 -14 112 22 8 60 -12
77 -42 14 -24 72 -161 134 -316 34 -84 39 -142 20 -208 -20 -69 -23 -134 -13
-278 7 -90 5 -119 -5 -132 -15 -20 -151 -58 -180 -50 -10 2 -16 7 -13 10 2 3
0 10 -5 17 -5 6 -16 43 -24 81 -18 85 -32 124 -46 124 -12 0 -12 -94 0 -165 4
-27 4 -54 0 -59 -4 -4 -28 -5 -52 0 -23 4 -35 9 -25 12 9 2 17 8 17 15 0 6 7
2 15 -9 8 -10 14 -14 14 -9 0 18 -27 47 -31 34 -3 -8 -11 -10 -23 -5 -16 6
-17 9 -6 16 12 7 11 15 -4 47 -14 27 -19 62 -20 123 -1 47 -4 91 -9 98 -5 8
-2 10 9 6 14 -6 15 -1 9 32 -4 22 -14 49 -23 62 -16 22 -15 26 11 80 56 114
68 275 33 437 -18 88 -18 95 0 95 8 0 15 5 15 10 0 17 15 11 38 -13z m-1589
-35 c14 -11 14 -11 -2 -6 -10 4 -22 15 -27 25 -14 25 -12 38 2 14 6 -11 19
-26 27 -33z m1105 -2 c-20 -30 -32 -39 -45 -35 -11 4 -19 2 -19 -4 0 -6 5 -11
11 -11 6 0 9 -6 6 -14 -3 -8 1 -20 9 -27 12 -9 20 -9 39 1 14 7 25 17 25 22 0
4 6 8 13 8 6 -1 2 -9 -10 -19 -22 -19 -33 -48 -13 -36 14 8 13 -1 -2 -25 -9
-15 -10 -23 -2 -28 19 -12 25 -69 8 -82 -37 -32 -71 -148 -80 -280 -9 -141
-51 -199 -158 -219 -43 -8 -48 -7 -66 17 -11 13 -20 29 -20 35 0 6 28 38 63
72 34 33 73 82 85 109 26 54 44 136 31 136 -5 0 -9 -4 -9 -10 0 -16 -90 -163
-118 -193 -44 -47 -60 -52 -88 -26 -13 12 -24 30 -24 39 0 9 33 77 73 151 72
134 72 134 71 209 -1 41 -3 90 -4 107 -4 43 19 68 84 89 28 9 60 23 71 30 35
25 40 15 5 -11 -19 -14 -40 -25 -47 -25 -7 0 -13 -4 -13 -9 0 -11 48 -2 56 11
3 5 11 5 19 -2 10 -8 19 -3 40 25 37 47 42 45 9 -5z m-418 -4 c6 -9 15 -16 19
-16 4 0 1 8 -6 17 -12 15 -12 16 4 10 10 -4 31 -7 47 -7 16 0 36 -8 46 -17 13
-13 19 -14 22 -5 5 16 22 5 22 -15 0 -38 -30 -53 -107 -53 -40 0 -73 -4 -73
-9 0 -13 37 -21 95 -21 54 0 75 -12 75 -42 0 -21 -35 -22 -215 -8 -103 8 -125
7 -114 -5 12 -11 132 -35 222 -43 54 -5 104 -15 110 -21 15 -15 -10 -81 -69
-182 -69 -117 -57 -113 -208 -78 -71 16 -150 36 -175 46 -59 22 -159 83 -166
102 -8 21 15 32 55 27 19 -3 64 -8 100 -11 60 -5 63 -5 40 9 -14 7 -54 20 -90
27 -36 7 -70 18 -77 25 -7 7 -11 35 -10 70 1 33 -2 77 -6 99 -8 37 -7 39 7 21
14 -17 16 -18 16 -3 0 22 17 22 23 0 4 -15 5 -15 6 2 1 11 6 27 12 35 9 13 10
12 5 -2 -3 -10 -2 -18 1 -18 14 0 73 24 73 30 0 4 14 4 31 2 22 -3 30 -1 25 7
-5 8 10 11 48 11 31 0 56 5 56 10 0 6 19 11 43 12 26 1 13 4 -38 9 -71 6 -68
6 30 3 85 -2 112 -6 121 -18z m399 14 c-3 -5 -12 -10 -18 -10 -7 0 -6 4 3 10
19 12 23 12 15 0z m-652 -7 c-7 -2 -19 -2 -25 0 -7 3 -2 5 12 5 14 0 19 -2 13
-5z m-83 -13 c-8 -5 -22 -10 -30 -10 -13 0 -13 1 0 10 8 5 22 10 30 10 13 0
13 -1 0 -10z m-334 -25 c27 1 31 -1 27 -19 -4 -16 -2 -18 5 -7 14 20 64 -7 73
-39 4 -14 8 -20 8 -15 2 14 25 -26 28 -49 4 -23 -13 -36 -46 -36 -61 0 -208
108 -198 146 4 16 5 15 6 -4 1 -15 5 -21 13 -16 6 4 8 3 4 -4 -12 -20 11 -22
29 -2 10 11 23 20 29 20 6 -1 1 -9 -10 -19 l-22 -18 22 -13 c19 -12 20 -12 8
3 -9 10 -10 17 -3 22 6 3 16 15 21 25 9 17 8 20 -11 17 -12 -1 -24 4 -26 13
-3 10 -2 11 4 4 4 -6 22 -10 39 -9z m1241 0 c0 -8 -4 -12 -9 -9 -4 3 -8 9 -8
15 0 5 4 9 8 9 5 0 9 -7 9 -15z m-1107 -15 c6 -11 7 -20 1 -20 -5 0 -11 6 -14
14 -3 8 -21 16 -39 19 l-33 4 37 1 c28 2 40 -3 48 -18z m100 10 c0 -5 -4 -10
-10 -10 -5 0 -10 5 -10 10 0 6 5 10 10 10 6 0 10 -4 10 -10z m97 4 c-3 -3 -12
-4 -19 -1 -8 3 -5 6 6 6 11 1 17 -2 13 -5z m1057 -57 c67 -34 81 -47 97 -81
22 -49 25 -133 5 -180 -20 -47 -66 -119 -73 -112 -3 3 0 12 7 21 7 9 10 19 6
22 -4 4 -12 1 -17 -7 -8 -11 -9 -9 -4 9 5 16 4 21 -4 17 -6 -4 -11 0 -11 9 0
9 -4 14 -9 11 -10 -6 -27 49 -22 73 4 20 -19 73 -41 94 -17 17 -22 44 -18 95
1 12 -2 22 -7 21 -20 -3 -25 2 -13 16 7 9 10 19 6 22 -4 4 -11 1 -16 -7 -7
-11 -9 -9 -7 8 2 27 13 24 121 -31z m-127 -19 c-3 -8 -6 -5 -6 6 -1 11 2 17 5
13 3 -3 4 -12 1 -19z m-1099 -23 c-3 -3 -9 2 -12 12 -6 14 -5 15 5 6 7 -7 10
-15 7 -18z m982 1 c0 -2 -7 -7 -16 -10 -8 -3 -12 -2 -9 4 6 10 25 14 25 6z
m-2080 -44 c35 -34 40 -44 40 -85 0 -48 -22 -83 -43 -70 -43 26 -85 106 -86
166 -1 41 38 36 89 -11z m864 4 c46 -34 106 -62 151 -70 70 -12 71 -13 74 -60
2 -42 -19 -79 -33 -58 -3 6 1 15 9 22 17 14 6 52 -18 56 -10 1 -14 -3 -10 -12
3 -8 9 -11 14 -8 5 3 9 -4 9 -16 0 -11 -7 -23 -16 -27 -12 -4 -13 -8 -3 -14
22 -13 -38 -23 -141 -24 l-95 0 -1 50 -2 50 7 -50 6 -50 7 40 c12 61 9 119 -4
134 -11 11 -10 13 4 8 10 -3 19 0 22 10 7 17 -1 33 -16 33 -7 0 -6 -6 2 -15
10 -12 10 -15 -4 -15 -9 0 -16 8 -16 20 0 26 16 25 54 -4z m1205 -30 c-9 -8
-10 -7 -5 7 3 10 7 24 7 30 1 7 3 4 6 -7 3 -10 -1 -23 -8 -30z m-1862 -142
c11 -87 31 -196 42 -241 13 -48 21 -111 20 -155 0 -81 -21 -243 -32 -255 -18
-18 -38 28 -47 108 -10 100 -19 139 -31 139 -6 0 -7 -42 -3 -104 5 -75 4 -105
-5 -110 -7 -5 -36 7 -67 25 -95 58 -112 127 -75 316 33 168 138 449 165 440 6
-2 20 -73 33 -163z m1873 7 c-5 -11 -7 -34 -4 -53 5 -26 3 -30 -6 -18 -9 12
-10 9 -5 -15 4 -16 10 -70 14 -119 5 -76 4 -92 -11 -109 -10 -11 -18 -23 -18
-27 0 -11 30 -34 30 -24 0 5 4 3 9 -4 6 -10 10 -4 16 20 4 18 9 27 12 20 6
-17 -5 -62 -16 -62 -4 0 -23 10 -42 23 l-34 23 -3 109 c-3 112 11 200 31 188
6 -3 7 -1 3 6 -4 6 0 23 8 36 19 29 31 33 16 6z m200 -1 c0 -5 -2 -10 -4 -10
-3 0 -8 5 -11 10 -3 6 -1 10 4 10 6 0 11 -4 11 -10z m-180 -26 c0 -8 -5 -12
-10 -9 -6 4 -8 11 -5 16 9 14 15 11 15 -7z m-930 -76 c55 -16 120 -61 127 -86
6 -26 -51 -118 -96 -154 -36 -28 -104 -21 -251 27 -133 43 -160 59 -160 90 0
31 15 35 141 35 60 0 109 4 109 9 0 15 -59 31 -134 37 -153 12 -151 28 5 49
107 14 198 12 259 -7z m927 -10 c-3 -7 -5 -2 -5 12 0 14 2 19 5 13 2 -7 2 -19
0 -25z m10 -80 c-3 -7 -5 -2 -5 12 0 14 2 19 5 13 2 -7 2 -19 0 -25z m210 0
c-3 -8 -6 -5 -6 6 -1 11 2 17 5 13 3 -3 4 -12 1 -19z m-818 -14 c94 -28 201
-158 178 -217 -3 -8 -36 -29 -74 -47 -91 -43 -184 -51 -246 -20 -60 30 -107
74 -107 99 0 12 23 52 51 88 28 37 54 73 56 81 13 32 67 39 142 16z m1420
-142 c11 -69 1 -140 -24 -179 l-19 -28 -7 30 c-9 41 -11 244 -2 286 l6 33 19
-43 c10 -23 22 -68 27 -99z m-529 88 c6 -11 8 -20 6 -20 -3 0 -10 9 -16 20 -6
11 -8 20 -6 20 3 0 10 -9 16 -20z m-283 -12 c-3 -8 -6 -5 -6 6 -1 11 2 17 5
13 3 -3 4 -12 1 -19z m-31 -75 c-10 -10 -19 5 -10 18 6 11 8 11 12 0 2 -7 1
-15 -2 -18z m-1199 -9 c84 -23 138 -50 163 -80 19 -25 21 -37 17 -89 -3 -34
-16 -83 -31 -115 -18 -39 -26 -72 -26 -111 0 -43 -4 -58 -16 -63 -44 -17 -148
44 -180 105 -18 37 -34 119 -23 119 5 0 22 -21 39 -47 l30 -48 0 31 c0 17 -14
58 -31 90 -23 44 -32 77 -36 131 -6 84 0 108 25 98 9 -4 41 -14 69 -21z m1499
-81 c17 -6 19 -24 2 -20 -16 3 -27 25 -26 52 1 16 2 16 5 -3 3 -13 11 -26 19
-29z m-356 10 c-1 -33 -29 -218 -40 -252 -12 -44 -7 -49 22 -20 22 22 39 78
63 207 7 35 35 45 35 12 0 -11 -7 -20 -16 -20 -8 0 -12 -5 -9 -10 4 -6 11 -8
16 -5 5 4 9 -2 9 -12 0 -31 -20 -93 -30 -93 -6 0 -10 -9 -10 -20 0 -20 19 -23
32 -5 4 6 8 1 8 -10 0 -12 -5 -26 -12 -33 -6 -6 -9 -14 -7 -17 7 -6 25 31 35
70 5 22 8 25 11 12 6 -25 -33 -96 -73 -134 -45 -40 -112 -63 -188 -63 -85 0
-122 13 -210 70 -86 57 -99 76 -98 138 1 84 58 96 100 22 12 -22 26 -40 31
-40 5 0 11 18 14 40 10 78 37 99 196 156 81 29 121 31 121 7z m387 -30 c-3
-10 -5 -4 -5 12 0 17 2 24 5 18 2 -7 2 -21 0 -30z m-1170 -29 c99 -54 113 -72
109 -137 -4 -59 -19 -75 -131 -152 -75 -52 -87 -57 -119 -51 -22 4 -42 16 -52
31 -14 22 -14 28 11 87 17 41 29 94 35 155 4 50 11 97 15 102 12 20 48 11 132
-35z m892 -66 c3 -69 -5 -59 -13 17 -3 33 -2 54 2 47 5 -7 10 -36 11 -64z
m260 46 c1 11 4 17 7 13 9 -9 -6 -48 -17 -42 -5 4 -9 18 -8 33 l1 27 8 -25 c6
-19 8 -21 9 -6z m-1859 -69 c0 -14 -4 -25 -9 -25 -4 0 -6 11 -3 25 2 14 6 25
8 25 2 0 4 -11 4 -25z m1603 -220 c-10 -7 -20 -12 -21 -10 -7 7 23 33 31 28 5
-3 0 -11 -10 -18z m-1216 -71 c30 -9 98 -16 156 -17 112 -2 118 0 214 79 18
14 37 23 43 19 23 -14 5 -352 -21 -377 -50 -50 -113 -63 -141 -30 -8 9 -18 31
-22 47 -17 76 -37 135 -46 135 -6 0 -10 -40 -10 -95 0 -113 -4 -118 -101 -107
l-64 7 -3 108 c-1 59 -7 107 -11 107 -16 0 -31 -63 -31 -132 0 -82 -10 -90
-74 -58 -39 18 -45 26 -51 61 -6 32 3 291 11 322 1 4 2 9 3 12 0 3 22 -10 48
-30 25 -19 71 -42 100 -51z m698 56 c113 -78 124 -196 35 -370 -11 -23 -41
-18 -63 12 -17 23 -20 47 -25 207 -3 100 -2 181 2 181 4 0 27 -14 51 -30z
m474 -31 c-11 -6 -10 -12 5 -28 20 -21 16 -62 -10 -113 -19 -36 -18 -41 6 -35
16 4 21 -1 26 -21 3 -15 7 -32 9 -39 2 -7 0 -15 -5 -18 -6 -4 -10 0 -11 7 0 7
-5 2 -10 -12 -5 -13 -9 -35 -7 -49 2 -20 -3 -26 -33 -36 -57 -20 -201 -28
-219 -13 -59 49 -106 163 -96 231 12 74 22 80 144 87 106 7 178 29 198 62 6 9
9 9 12 -1 2 -7 -2 -17 -9 -22z m59 -120 l-3 -124 -5 132 c-3 73 -1 129 3 124
4 -4 6 -64 5 -132z m-41 -181 c-3 -7 -5 -2 -5 12 0 14 2 19 5 13 2 -7 2 -19 0
-25z m-347 -28 c30 -30 24 -40 -25 -40 -38 0 -45 3 -45 20 0 17 23 39 43 40 4
0 16 -9 27 -20z"/>
<path d="M1910 7820 c-12 -8 -11 -10 8 -10 12 0 22 5 22 10 0 13 -11 13 -30 0z"/>
<path d="M1978 7823 c7 -3 16 -2 19 1 4 3 -2 6 -13 5 -11 0 -14 -3 -6 -6z"/>
<path d="M1995 7800 c-3 -6 1 -7 9 -4 18 7 21 14 7 14 -6 0 -13 -4 -16 -10z"/>
<path d="M1755 7790 c-3 -5 -1 -10 4 -10 6 0 11 5 11 10 0 6 -2 10 -4 10 -3 0
-8 -4 -11 -10z"/>
<path d="M1870 7796 c0 -2 9 -6 20 -9 11 -3 20 -1 20 4 0 5 -9 9 -20 9 -11 0
-20 -2 -20 -4z"/>
<path d="M1518 7718 c5 -5 16 -8 23 -6 8 3 3 7 -10 11 -17 4 -21 3 -13 -5z"/>
<path d="M1761 7720 c0 -8 4 -24 9 -35 5 -13 9 -14 9 -5 0 8 -4 24 -9 35 -5
13 -9 14 -9 5z"/>
<path d="M1731 7684 c0 -11 3 -14 6 -6 3 7 2 16 -1 19 -3 4 -6 -2 -5 -13z"/>
<path d="M1761 7604 c0 -11 3 -14 6 -6 3 7 2 16 -1 19 -3 4 -6 -2 -5 -13z"/>
<path d="M2915 7383 c11 -3 23 -10 27 -17 5 -7 8 -5 8 7 0 12 -7 17 -27 16
-22 -1 -23 -2 -8 -6z"/>
<path d="M3404 7279 c0 -13 3 -15 13 -7 7 6 13 12 13 13 0 2 -6 5 -13 8 -7 3
-13 -3 -13 -14z"/>
<path d="M1611 7114 c0 -11 3 -14 6 -6 3 7 2 16 -1 19 -3 4 -6 -2 -5 -13z"/>
<path d="M3415 7080 c-16 -17 -16 -20 -3 -15 9 4 19 13 22 21 7 19 2 18 -19
-6z"/>
<path d="M1782 6960 c0 -14 2 -19 5 -12 2 6 2 18 0 25 -3 6 -5 1 -5 -13z"/>
<path d="M2821 6354 c0 -11 3 -14 6 -6 3 7 2 16 -1 19 -3 4 -6 -2 -5 -13z"/>
<path d="M3985 6329 c-4 -6 -5 -12 -2 -15 2 -3 7 2 10 11 7 17 1 20 -8 4z"/>
<path d="M1977 6279 c4 -13 9 -17 15 -11 11 11 3 32 -12 32 -4 0 -6 -9 -3 -21z"/>
<path d="M3985 6289 c-4 -6 -5 -12 -2 -15 2 -3 7 2 10 11 7 17 1 20 -8 4z"/>
<path d="M1061 6200 c0 -14 6 -38 14 -55 18 -40 18 -21 1 35 -10 32 -15 38
-15 20z"/>
<path d="M3717 6083 c-3 -10 -8 -28 -12 -40 -3 -13 -2 -23 3 -23 5 0 12 17 15
37 7 39 2 57 -6 26z"/>
<path d="M3714 5999 c-11 -18 11 -32 25 -16 9 12 8 16 -3 20 -9 4 -18 1 -22
-4z"/>
<path d="M3772 5625 c0 -16 2 -22 5 -12 2 9 2 23 0 30 -3 6 -5 -1 -5 -18z"/>
<path d="M1235 5416 c-105 -33 -200 -102 -251 -182 -150 -233 -66 -524 185
-647 64 -31 71 -32 191 -32 120 0 127 1 191 32 164 80 259 227 259 399 0 199
-130 372 -323 429 -61 18 -196 19 -252 1z m53 -190 c39 -20 63 -50 72 -91 18
-81 -43 -165 -121 -165 -57 0 -104 25 -123 65 -21 43 -20 114 0 144 39 55 116
76 172 47z m216 -406 c19 -19 13 -90 -9 -106 -47 -35 -115 -2 -115 56 0 45 34
74 78 66 19 -3 40 -10 46 -16z"/>
<path d="M3065 5415 c-104 -22 -195 -81 -260 -167 -64 -85 -88 -168 -83 -283
3 -82 8 -101 40 -167 64 -128 169 -210 313 -243 81 -19 172 -13 255 18 253 92
365 387 235 625 -42 78 -121 151 -201 187 -102 45 -190 54 -299 30z m30 -189
c82 -35 105 -155 40 -220 -99 -99 -262 -4 -226 132 22 82 106 121 186 88z
m210 -411 c33 -32 32 -70 -1 -100 -30 -28 -33 -29 -68 -15 -33 12 -49 45 -42
85 11 55 71 71 111 30z"/>
<path d="M3636 4404 c-10 -25 1 -29 14 -5 6 12 7 21 1 21 -5 0 -12 -7 -15 -16z"/>
<path d="M2325 4259 c-22 -5 -103 -8 -180 -6 -137 2 -140 2 -143 -20 -3 -19 3
-23 45 -30 68 -11 252 -8 312 7 44 10 51 15 51 36 0 27 -13 29 -85 13z"/>
<path d="M1046 4162 c-11 -18 45 -59 64 -47 14 9 1 31 -26 44 -30 13 -31 13
-38 3z m45 -22 c13 -10 19 -19 13 -20 -6 0 -21 9 -34 20 -30 26 -10 26 21 0z"/>
<path d="M3017 3849 c8 -8 16 -8 30 0 16 9 14 10 -11 11 -22 0 -27 -3 -19 -11z"/>
<path d="M3821 7073 c-1 -17 16 -25 25 -12 4 7 3 9 -4 5 -5 -3 -13 0 -15 6 -4
9 -6 10 -6 1z"/>
<path d="M2912 3653 c-9 -3 -3 -12 18 -24 23 -15 35 -17 48 -9 13 8 13 10 2 8
-8 -1 -26 2 -39 6 -18 6 -21 10 -10 17 15 9 2 11 -19 2z"/>
<path d="M2887 3599 c7 -7 15 -10 18 -7 3 3 -2 9 -12 12 -14 6 -15 5 -6 -5z"/>
<path d="M2988 3603 c7 -3 16 -2 19 1 4 3 -2 6 -13 5 -11 0 -14 -3 -6 -6z"/>
<path d="M1752 3480 c0 -14 2 -19 5 -12 2 6 2 18 0 25 -3 6 -5 1 -5 -13z"/>
<path d="M1746 3414 c-4 -14 -5 -29 -2 -31 3 -3 8 7 12 21 3 15 4 29 1 32 -2
3 -8 -7 -11 -22z"/>
<path d="M1712 3275 c0 -16 2 -22 5 -12 2 9 2 23 0 30 -3 6 -5 -1 -5 -18z"/>
<path d="M1838 3028 c5 -5 16 -8 23 -6 8 3 3 7 -10 11 -17 4 -21 3 -13 -5z"/>
<path d="M1888 3023 c6 -2 18 -2 25 0 6 3 1 5 -13 5 -14 0 -19 -2 -12 -5z"/>
<path d="M3030 3069 c0 -5 5 -7 10 -4 6 3 10 8 10 11 0 2 -4 4 -10 4 -5 0 -10
-5 -10 -11z"/>
<path d="M3068 3063 c7 -3 16 -2 19 1 4 3 -2 6 -13 5 -11 0 -14 -3 -6 -6z"/>
<path d="M3630 3040 c-9 -6 -10 -10 -3 -10 6 0 15 5 18 10 8 12 4 12 -15 0z"/>
<path d="M3252 2991 c-11 -7 -11 -9 1 -14 16 -6 27 0 27 15 0 10 -11 10 -28
-1z"/>
<path d="M3301 2013 c0 -4 4 -17 9 -28 8 -19 9 -19 9 2 1 12 -3 25 -9 28 -5 3
-10 3 -9 -2z"/>
<path d="M3455 1980 c-3 -5 -1 -10 4 -10 6 0 11 5 11 10 0 6 -2 10 -4 10 -3 0
-8 -4 -11 -10z"/>
<path d="M2778 2847 c12 -7 19 -16 16 -20 -4 -4 -2 -7 4 -7 19 0 14 18 -7 30
-11 5 -23 10 -28 10 -4 -1 2 -6 15 -13z"/>
<path d="M2814 2730 c0 -11 3 -20 7 -20 10 0 19 27 12 34 -12 11 -19 6 -19
-14z"/>
<path d="M2290 2950 c-34 -7 -34 -7 12 -9 26 0 50 4 53 9 7 11 -12 11 -65 0z"/>
<path d="M2358 2923 c7 -3 16 -2 19 1 4 3 -2 6 -13 5 -11 0 -14 -3 -6 -6z"/>
<path d="M2108 2903 c6 -2 18 -2 25 0 6 3 1 5 -13 5 -14 0 -19 -2 -12 -5z"/>
<path d="M1733 2877 c0 -8 6 -14 14 -14 9 0 10 4 2 14 -6 7 -12 13 -14 13 -1
0 -2 -6 -2 -13z"/>
<path d="M1835 2820 c-3 -5 -1 -10 4 -10 6 0 11 5 11 10 0 6 -2 10 -4 10 -3 0
-8 -4 -11 -10z"/>
<path d="M1833 2785 c0 -8 4 -12 9 -9 4 3 8 9 8 15 0 5 -4 9 -8 9 -5 0 -9 -7
-9 -15z"/>
<path d="M3030 2886 c0 -9 5 -16 10 -16 6 0 10 4 10 9 0 6 -4 13 -10 16 -5 3
-10 -1 -10 -9z"/>
<path d="M3043 2835 c0 -7 6 -11 14 -8 7 3 13 6 13 8 0 2 -6 5 -13 8 -8 3 -14
-1 -14 -8z"/>
<path d="M3101 2614 c0 -11 3 -14 6 -6 3 7 2 16 -1 19 -3 4 -6 -2 -5 -13z"/>
<path d="M720 2802 c0 -12 19 -26 26 -19 2 2 -2 10 -11 17 -9 8 -15 8 -15 2z"/>
<path d="M792 2654 c-7 -8 -8 -14 -3 -14 10 0 25 19 20 25 -2 1 -10 -3 -17
-11z"/>
<path d="M2830 2506 c0 -10 4 -15 10 -11 5 3 11 -26 13 -72 l3 -78 2 76 c2 58
-2 80 -13 89 -12 10 -15 9 -15 -4z"/>
<path d="M1890 2516 c0 -2 7 -7 16 -10 8 -3 12 -2 9 4 -6 10 -25 14 -25 6z"/>
<path d="M2861 2034 c0 -11 3 -14 6 -6 3 7 2 16 -1 19 -3 4 -6 -2 -5 -13z"/>
<path d="M1552 1530 c0 -8 4 -26 8 -40 6 -20 8 -21 8 -5 0 11 -3 29 -8 40 -5
12 -8 14 -8 5z"/>
<path d="M2860 1735 c-11 -13 -10 -14 4 -9 9 3 16 10 16 15 0 13 -6 11 -20 -6z"/>
<path d="M2615 1140 c-3 -5 -1 -62 4 -127 6 -65 13 -224 17 -353 3 -129 10
-239 14 -244 5 -5 16 -6 25 -2 14 5 16 23 13 136 -2 71 0 130 3 130 40 0 79
-118 79 -239 0 -66 3 -90 14 -94 37 -14 45 54 25 199 -11 82 -37 147 -66 163
-16 8 -15 13 10 59 47 86 47 202 -1 297 -18 37 -30 48 -69 69 -36 18 -59 20
-68 6z m77 -67 c59 -69 64 -237 9 -304 -18 -22 -18 -21 -25 122 -4 79 -9 156
-12 172 -6 31 6 35 28 10z"/>
<path d="M1560 1078 c0 -13 7 -131 15 -263 8 -132 15 -281 15 -332 0 -106 5
-123 33 -123 20 0 20 3 13 183 -3 100 -9 225 -12 277 l-5 95 35 -84 c34 -80
60 -121 77 -121 4 0 21 37 38 83 l30 82 1 -75 c2 -206 22 -426 40 -444 24 -24
29 12 20 144 -5 74 -9 238 -10 363 0 211 -1 228 -17 225 -13 -2 -30 -41 -63
-140 -25 -75 -48 -139 -51 -143 -3 -3 -19 29 -34 72 -44 125 -92 223 -109 223
-10 0 -16 -9 -16 -22z"/>
<path d="M3003 1090 c-13 -6 -29 -29 -42 -66 -39 -104 -46 -154 -45 -334 0
-156 3 -181 22 -231 28 -70 52 -93 98 -93 40 0 66 25 85 84 21 62 23 354 4
456 -19 104 -45 168 -73 183 -24 13 -20 12 -49 1z m51 -91 c31 -104 40 -177
38 -329 -1 -163 -14 -234 -45 -254 -26 -17 -54 18 -73 94 -21 81 -15 344 9
430 36 127 48 137 71 59z"/>
<path d="M3333 1088 c-63 -31 -113 -342 -85 -536 26 -184 129 -251 192 -127
23 47 25 62 28 226 3 136 0 195 -13 260 -20 101 -46 163 -73 178 -24 13 -21
13 -49 -1z m45 -65 c30 -76 45 -193 45 -343 0 -158 -11 -229 -41 -263 -14 -16
-17 -16 -33 -1 -10 9 -26 37 -36 63 -25 64 -26 367 -1 456 23 82 36 115 47
115 5 0 13 -12 19 -27z"/>
<path d="M729 1088 c-1 -6 -9 -383 -12 -551 -2 -148 0 -179 13 -187 8 -5 18
-6 22 -2 6 7 21 549 18 662 -1 52 -12 80 -31 80 -5 0 -9 -1 -10 -2z"/>
<path d="M1231 1072 c-16 -30 -30 -162 -36 -328 -2 -88 -8 -210 -11 -271 -5
-100 -4 -114 11 -119 9 -4 21 -2 26 3 5 5 12 74 16 154 3 86 10 147 17 151 16
11 96 10 96 -1 0 -37 42 -287 50 -295 6 -6 14 -5 23 2 14 12 12 55 -17 272
-30 224 -73 388 -112 431 -22 24 -50 24 -63 1z m105 -303 c6 -42 4 -47 -17
-52 -13 -4 -36 -7 -51 -7 -26 0 -27 2 -23 43 2 23 7 89 10 146 3 57 8 108 12
114 7 12 59 -171 69 -244z"/>
<path d="M2291 1029 c-32 -52 -45 -152 -45 -334 0 -136 3 -182 18 -233 22 -75
59 -112 112 -112 48 0 71 27 81 97 9 64 11 218 3 226 -3 3 -34 9 -69 13 -58 6
-63 5 -59 -12 2 -13 16 -22 46 -28 l42 -9 0 -46 c0 -71 -19 -174 -36 -191 -22
-23 -46 -2 -69 61 -17 47 -20 79 -19 244 0 197 13 302 40 312 8 3 28 0 45 -7
41 -17 61 0 34 30 -13 14 -31 20 -62 20 -38 0 -46 -4 -62 -31z"/>
<path d="M3568 1049 c-24 -15 1 -39 40 -39 l39 0 6 -172 c15 -393 18 -428 38
-428 10 0 20 4 23 8 3 5 1 98 -4 208 -5 109 -10 242 -12 294 l-3 95 60 5 c44
4 60 9 60 20 0 12 -20 15 -118 15 -66 0 -124 -3 -129 -6z"/>
</g>
</svg>
